<svg width="120" height="29" viewBox="0 0 160 41" fill="none" xmlns="http://www.w3.org/2000/svg">
<path d="M11.9307 31.2643C17.995 31.2643 21.9021 27.6013 21.9021 21.2522V12.2983C21.9021 5.98983 18.0357 2.16406 11.9307 2.16406H2.2849C2.1221 2.16406 2 2.24546 2 2.40826V31.0201C2 31.1829 2.1221 31.2643 2.2849 31.2643H11.9307ZM3.38379 3.42575H11.89C17.2624 3.42575 20.5183 6.68172 20.5183 12.2983V21.2522C20.5183 26.8687 17.2624 29.9619 11.89 29.9619H3.38379V3.42575Z" fill="#414141" stroke="#414141" stroke-width="3.2" stroke-miterlimit="2"/>
<path d="M31.4838 12.0142C31.4024 12.0956 31.4431 12.2177 31.4838 12.3398L31.8501 12.9096C31.9315 12.9909 32.0536 13.0316 32.2164 12.9502C33.763 11.9735 36.1642 11.1595 38.7283 11.1595C43.246 11.1595 44.9961 13.6014 44.9961 17.4679V19.5843C43.3681 19.218 41.1296 18.811 38.7283 18.811C33.4781 18.811 30.3849 21.0902 30.3849 25.1601C30.3849 29.2708 33.9665 31.6721 38.7283 31.6721C41.7401 31.6721 44.3856 30.9802 46.095 30.2476C46.2578 30.2069 46.2984 30.0441 46.2984 29.9627V17.4272C46.2984 12.8689 43.8972 9.93848 38.769 9.93848C35.8386 9.93848 33.2339 10.7932 31.4838 12.0142ZM31.6873 25.1601C31.6873 21.8635 34.1293 19.9913 38.7283 19.9913C41.0482 19.9913 43.4088 20.3576 44.9961 20.7239V29.3522C43.4902 29.922 41.3738 30.4918 38.7283 30.4918C34.6177 30.4918 31.6873 28.4161 31.6873 25.1601Z" fill="#414141" stroke="#414141" stroke-width="3.2" stroke-miterlimit="2"/>
<path d="M70.6458 27.7642C68.855 28.7003 66.8201 29.2701 64.5816 29.2701C60.186 29.2701 57.3371 27.1944 57.3371 22.5953V10.6296C57.3371 10.4668 57.215 10.3447 57.0522 10.3447H56.2789C56.1161 10.3447 56.0347 10.4668 56.0347 10.6296V22.636C56.0347 27.927 59.4534 30.491 64.4595 30.491C66.698 30.491 68.855 29.962 70.6458 29.0259V31.8341C70.6865 35.6599 68.6516 38.1833 64.0932 38.1833C61.1628 38.1833 59.0871 36.8809 57.2557 35.2936C57.1336 35.1715 57.0115 35.2122 56.9301 35.3343L56.4824 35.8634C56.401 35.9855 56.401 36.1483 56.4824 36.2297C58.5987 38.1426 61 39.4043 64.0932 39.4043C69.5063 39.4043 71.9482 36.2704 71.9482 31.8748V10.6296C71.9482 10.4668 71.8668 10.3447 71.704 10.3447H70.89C70.7272 10.3447 70.6458 10.4668 70.6458 10.6296V27.7642Z" fill="#414141" stroke="#414141" stroke-width="3.2" stroke-miterlimit="2"/>
<path d="M101.955 27.7644C102.037 27.683 102.078 27.5609 102.078 27.4388V16.4906C102.078 16.3278 101.955 16.2464 101.833 16.2464H92.1876C92.0248 16.2464 91.9434 16.3278 91.9434 16.4906V17.2639C91.9434 17.4267 92.0248 17.5081 92.1876 17.5081H100.734V27.1132C98.3332 29.2703 95.2807 30.3692 92.0655 30.3692C86.2861 30.3692 83.2743 26.9097 83.2743 21.985V11.4031C83.2743 6.47848 86.2454 3.01901 91.9434 3.01901C95.0365 3.01901 98.1704 4.0772 100.531 5.99009C100.694 6.07148 100.816 6.03079 100.897 5.90869L101.345 5.29819C101.467 5.17609 101.467 5.0133 101.304 4.9319C98.6181 2.81552 95.24 1.75732 91.9434 1.75732C85.5942 1.75732 81.9313 5.66449 81.9313 11.4031V21.985C81.9313 27.683 85.6349 31.6716 92.0655 31.6716C95.7284 31.6716 99.2286 30.3692 101.955 27.7644Z" fill="#4F709C" stroke="#4F709C" stroke-width="3.2" stroke-miterlimit="2"/>
<path d="M112.944 31.2651C113.107 31.2651 113.188 31.1837 113.188 31.0209V12.2177C114.938 11.5258 117.055 11.1595 119.008 11.1595C120.351 11.1595 121.776 11.2816 123.037 11.4851C123.2 11.5258 123.282 11.4444 123.282 11.2816V10.5897C123.282 10.4269 123.241 10.3455 123.037 10.3048C121.735 10.1013 120.311 9.93848 118.927 9.93848C116.607 9.93848 114.043 10.4269 112.089 11.363C111.967 11.4037 111.886 11.5258 111.886 11.6479V31.0209C111.886 31.1837 112.008 31.2651 112.13 31.2651H112.944Z" fill="#4F709C" stroke="#4F709C" stroke-width="3.2" stroke-miterlimit="2"/>
<path d="M132.124 31.2648C132.287 31.2648 132.369 31.1834 132.369 31.0206V10.63C132.369 10.4673 132.287 10.3452 132.124 10.3452H131.31C131.148 10.3452 131.066 10.4673 131.066 10.63V31.0206C131.066 31.1834 131.148 31.2648 131.31 31.2648H132.124ZM132.776 4.7286C132.776 4.07741 132.328 3.67041 131.717 3.67041C131.107 3.67041 130.659 4.07741 130.659 4.7286C130.659 5.3391 131.107 5.74609 131.717 5.74609C132.328 5.74609 132.776 5.3391 132.776 4.7286Z" fill="#4F709C" stroke="#4F709C" stroke-width="3.2" stroke-miterlimit="2"/>
<path d="M156.698 11.8099C154.947 10.6703 152.709 9.93769 150.348 9.93769C145.017 9.93769 141.761 12.746 141.761 18.6474V23.0023C141.761 28.9851 145.057 31.6713 150.389 31.6713C152.994 31.6713 155.599 31.1422 157.796 30.2468C157.918 30.2061 158 30.084 158 29.9619V2.40826C158 2.24546 157.878 2.16406 157.715 2.16406H156.942C156.779 2.16406 156.698 2.24546 156.698 2.40826V11.8099ZM143.063 23.0023V18.6474C143.063 13.3972 145.709 11.1587 150.389 11.1587C152.668 11.1587 154.907 11.8913 156.698 13.1123V29.3921C154.866 30.0433 152.668 30.491 150.389 30.491C145.749 30.491 143.063 28.2932 143.063 23.0023Z" fill="#4F709C" stroke="#4F709C" stroke-width="3.2" stroke-miterlimit="2"/>
</svg>
